<?xml version="1.0" standalone="no"?>
<!DOCTYPE svg PUBLIC "-//W3C//DTD SVG 20010904//EN"
 "http://www.w3.org/TR/2001/REC-SVG-20010904/DTD/svg10.dtd">
<svg version="1.0" xmlns="http://www.w3.org/2000/svg"
 width="2218.000000pt" height="2288.000000pt" viewBox="0 0 2218.000000 2288.000000"
 preserveAspectRatio="xMidYMid meet">

<g transform="translate(0.000000,2288.000000) scale(0.100000,-0.100000)"
fill="#000000" stroke="none">
<path d="M8761 22795 c-420 -76 -915 -430 -1281 -914 -353 -468 -565 -1058
-520 -1451 44 -390 247 -606 590 -627 285 -17 648 134 995 414 219 176 480
476 644 738 99 157 215 403 270 570 74 226 95 346 96 545 0 194 -14 265 -81
408 -120 257 -387 376 -713 317z"/>
<path d="M11775 21684 c-440 -68 -909 -291 -1358 -647 -132 -103 -401 -373
-506 -506 -241 -305 -383 -586 -452 -896 -8 -34 -13 -120 -13 -200 0 -115 3
-154 22 -218 71 -247 243 -408 509 -476 667 -170 1713 319 2358 1104 230 279
387 572 461 861 25 96 29 127 29 259 0 113 -4 166 -18 215 -76 280 -279 449
-601 505 -108 18 -308 18 -431 -1z"/>
<path d="M5900 19540 c-991 -77 -2016 -399 -2978 -937 -74 -41 -136 -72 -139
-69 -3 3 -81 135 -172 293 l-166 288 -290 6 c-452 11 -2072 17 -2085 9 -8 -5
40 -97 153 -291 238 -411 337 -585 337 -593 0 -3 92 -165 203 -358 112 -194
225 -391 251 -438 25 -47 55 -96 65 -110 11 -14 710 -1224 1554 -2690 844
-1466 1935 -3360 2424 -4210 986 -1712 1243 -2159 1243 -2166 0 -3 22 -40 49
-82 27 -42 953 -1647 2059 -3567 1758 -3052 2615 -4532 2640 -4557 11 -11 557
924 2514 4307 971 1678 3065 5298 4655 8045 1589 2747 2945 5092 3013 5210 68
118 172 298 232 400 60 102 113 192 117 200 4 8 126 210 270 448 145 238 261
434 260 436 -2 1 -540 0 -1194 -2 l-1190 -4 -174 -297 c-95 -163 -199 -339
-230 -391 -31 -52 -68 -115 -81 -140 -19 -35 -6042 -10447 -7843 -13558 -176
-305 -326 -556 -334 -559 -8 -3 -20 1 -28 8 -12 13 -3125 5415 -3193 5540 -16
30 -108 190 -204 355 -321 550 -418 720 -418 737 0 10 28 35 68 59 1288 810
2220 1761 2756 2811 618 1213 667 2492 137 3602 -464 972 -1314 1692 -2418
2049 -284 92 -633 164 -973 202 -171 18 -717 27 -890 14z m856 -1660 c490 -75
939 -300 1291 -649 283 -280 479 -599 597 -970 117 -371 139 -798 60 -1191
-138 -689 -601 -1297 -1232 -1619 -351 -179 -672 -255 -1072 -255 -332 -1
-549 40 -868 161 -455 173 -877 528 -1148 965 -258 416 -381 950 -333 1444 15
160 74 437 120 572 197 566 629 1053 1174 1322 280 139 579 220 895 244 114 8
384 -4 516 -24z"/>
<path d="M13380 18610 c-398 -49 -754 -157 -1117 -338 -600 -301 -1063 -742
-1232 -1175 -181 -465 -15 -839 444 -1003 152 -54 268 -74 466 -81 245 -8 437
13 699 78 863 213 1663 798 1926 1408 78 181 105 392 69 536 -75 293 -327 485
-737 561 -99 18 -412 27 -518 14z"/>
<path d="M12950 15419 c-838 -53 -1668 -478 -1968 -1009 -82 -146 -118 -336
-88 -464 48 -202 179 -349 416 -467 221 -109 586 -165 915 -139 369 28 696
111 1030 259 877 389 1264 1077 845 1500 -110 112 -293 210 -483 260 -43 11
-81 22 -85 25 -16 10 -240 35 -347 39 -60 2 -166 1 -235 -4z"/>
</g>
</svg>
