<?xml version="1.0" standalone="no"?>
<!DOCTYPE svg PUBLIC "-//W3C//DTD SVG 20010904//EN"
 "http://www.w3.org/TR/2001/REC-SVG-20010904/DTD/svg10.dtd">
<svg version="1.0" xmlns="http://www.w3.org/2000/svg"
 width="2216.000000pt" height="2771.000000pt" viewBox="0 0 2216.000000 2771.000000"
 preserveAspectRatio="xMidYMid meet">

<g transform="translate(0.000000,2771.000000) scale(0.100000,-0.100000)"
fill="#000000" stroke="none">
<path d="M8751 27275 c-420 -76 -915 -430 -1281 -914 -353 -468 -565 -1058
-520 -1451 44 -390 247 -606 590 -627 285 -17 648 134 995 414 219 176 480
476 644 738 99 157 215 403 270 570 74 226 95 346 96 545 0 194 -14 265 -81
408 -120 257 -387 376 -713 317z"/>
<path d="M11765 26164 c-440 -68 -909 -291 -1358 -647 -132 -103 -401 -373
-506 -506 -241 -305 -383 -586 -452 -896 -8 -34 -13 -120 -13 -200 0 -115 3
-154 22 -218 71 -247 243 -408 509 -476 667 -170 1713 319 2358 1104 230 279
387 572 461 861 25 96 29 127 29 259 0 113 -4 166 -18 215 -76 280 -279 449
-601 505 -108 18 -308 18 -431 -1z"/>
<path d="M5890 24020 c-991 -77 -2016 -399 -2978 -937 -74 -41 -137 -72 -140
-68 -4 3 -81 135 -172 293 l-166 287 -289 6 c-449 10 -2072 17 -2085 9 -8 -5
28 -74 111 -216 179 -304 341 -590 381 -670 19 -38 87 -157 150 -264 63 -107
155 -265 203 -350 48 -85 118 -207 155 -270 50 -85 3487 -6051 4825 -8375 240
-417 405 -707 405 -711 0 -3 22 -40 49 -82 27 -42 953 -1647 2059 -3567 1758
-3052 2615 -4532 2640 -4557 11 -11 557 924 2514 4307 971 1678 3066 5298
4655 8045 1589 2747 2902 5018 2918 5045 73 133 341 595 365 630 15 22 41 66
59 99 17 32 149 252 292 488 144 236 259 430 258 432 -2 1 -540 0 -1195 -2
l-1192 -4 -11 -24 c-12 -28 -170 -299 -336 -579 -62 -104 -1820 -3140 -3905
-6745 -2086 -3605 -3928 -6788 -4093 -7073 -165 -285 -306 -521 -314 -524 -8
-3 -20 1 -28 8 -12 13 -3125 5415 -3193 5540 -16 30 -108 190 -204 355 -321
550 -418 720 -418 737 0 10 28 35 68 59 1288 810 2220 1761 2756 2811 618
1213 667 2492 137 3602 -464 972 -1314 1692 -2418 2049 -284 92 -633 164 -973
202 -171 18 -717 27 -890 14z m856 -1660 c490 -75 939 -300 1291 -649 283
-280 479 -599 597 -970 117 -371 139 -798 60 -1191 -138 -689 -601 -1297
-1232 -1619 -351 -179 -672 -255 -1072 -255 -332 -1 -549 40 -868 161 -455
173 -877 528 -1148 965 -258 416 -381 950 -333 1444 15 160 74 437 120 572
197 566 629 1053 1174 1322 280 139 579 220 895 244 114 8 384 -4 516 -24z"/>
<path d="M13370 23090 c-398 -49 -754 -157 -1117 -338 -600 -301 -1063 -742
-1232 -1175 -181 -465 -15 -839 444 -1003 152 -54 268 -74 466 -81 245 -8 437
13 699 78 863 213 1663 798 1926 1408 78 181 105 392 69 536 -75 293 -327 485
-737 561 -99 18 -412 27 -518 14z"/>
<path d="M12940 19899 c-838 -53 -1668 -478 -1968 -1009 -82 -146 -118 -336
-88 -464 48 -202 179 -349 416 -467 221 -109 586 -165 915 -139 369 28 696
111 1030 259 877 389 1264 1077 845 1500 -110 112 -293 210 -483 260 -43 11
-81 22 -85 25 -16 10 -240 35 -347 39 -60 2 -166 1 -235 -4z"/>
<path d="M6336 3740 c-318 -37 -572 -193 -727 -449 -79 -131 -117 -330 -99
-518 22 -224 95 -387 240 -534 98 -99 186 -154 580 -364 287 -152 416 -258
483 -395 60 -122 68 -208 31 -322 -46 -141 -227 -217 -489 -205 -178 8 -340
59 -501 157 -115 71 -120 74 -136 68 -19 -8 -223 -502 -215 -522 8 -20 113
-80 225 -128 366 -156 870 -153 1219 7 160 74 329 222 411 361 81 138 120 317
107 494 -19 262 -98 444 -269 616 -92 92 -224 178 -477 309 -353 184 -515 309
-580 450 -29 61 -31 73 -27 144 8 139 89 248 221 297 72 26 292 27 387 0 112
-31 215 -75 311 -133 70 -42 97 -53 108 -46 15 10 181 462 181 495 0 35 -179
129 -322 168 -164 45 -490 69 -662 50z"/>
<path d="M15070 3719 c-129 -5 -300 -12 -380 -16 l-145 -8 0 -1615 0 -1615
505 -3 c511 -3 693 4 837 33 357 72 643 276 767 547 61 133 71 190 70 403 -1
224 -15 292 -90 443 -77 154 -238 303 -401 372 -29 12 -53 26 -53 30 0 3 25
24 55 44 77 54 194 181 232 251 56 107 68 164 67 320 -1 107 -6 158 -22 216
-85 315 -344 518 -747 584 -118 20 -404 26 -695 14z m622 -528 c36 -11 88 -36
114 -54 154 -103 175 -376 39 -525 -47 -52 -101 -84 -195 -113 -69 -22 -93
-24 -290 -24 l-215 0 -3 367 -2 367 27 4 c16 3 125 4 243 3 189 -3 223 -6 282
-25z m-57 -1201 c298 -43 429 -153 466 -394 13 -80 6 -204 -15 -283 -62 -232
-242 -337 -601 -350 -83 -3 -194 -2 -248 2 l-97 7 0 514 0 514 213 0 c116 0
244 -5 282 -10z"/>
<path d="M3323 3706 c-161 -6 -287 -16 -293 -22 -7 -7 -9 -536 -8 -1615 l3
-1604 295 0 295 0 3 585 2 585 103 -8 c56 -4 165 -5 242 -2 444 19 736 124
942 338 164 170 242 367 263 654 42 599 -222 928 -840 1047 -252 49 -556 62
-1007 42z m792 -554 c316 -69 458 -230 442 -502 -14 -233 -116 -370 -327 -440
-131 -43 -393 -63 -557 -44 l-53 7 0 498 c0 388 3 499 13 503 6 3 98 4 202 2
139 -3 214 -10 280 -24z"/>
<path d="M7945 3688 c-3 -7 -4 -735 -3 -1618 l3 -1605 295 0 295 0 0 1615 0
1615 -293 3 c-229 2 -294 0 -297 -10z"/>
<path d="M10214 3685 c-4 -8 -4 -24 -1 -34 11 -43 1181 -3217 1190 -3229 7 -9
50 -12 175 -10 l166 3 623 1620 c343 891 622 1629 620 1640 -2 19 -10 20 -313
23 -242 2 -314 -1 -321 -10 -6 -7 -180 -487 -389 -1066 l-378 -1054 -22 64
c-302 892 -699 2046 -706 2056 -8 9 -85 12 -325 12 -271 0 -314 -2 -319 -15z"/>
<path d="M13305 3688 c-3 -7 -4 -735 -3 -1618 l3 -1605 295 0 295 0 0 1615 0
1615 -293 3 c-229 2 -294 0 -297 -10z"/>
<path d="M17205 3688 c-3 -7 -4 -735 -3 -1618 l3 -1605 1025 0 1025 0 0 265 0
265 -722 3 -723 2 0 460 0 460 513 2 512 3 0 255 0 255 -512 3 -513 2 0 360 0
360 723 2 722 3 0 265 0 265 -1023 3 c-813 2 -1024 0 -1027 -10z"/>
</g>
</svg>
