<?xml version="1.0" standalone="no"?>
<!DOCTYPE svg PUBLIC "-//W3C//DTD SVG 20010904//EN"
 "http://www.w3.org/TR/2001/REC-SVG-20010904/DTD/svg10.dtd">
<svg version="1.0" xmlns="http://www.w3.org/2000/svg"
 width="1636.000000pt" height="344.000000pt" viewBox="0 0 1636.000000 344.000000"
 preserveAspectRatio="xMidYMid meet">

<g transform="translate(0.000000,344.000000) scale(0.100000,-0.100000)"
fill="#000000" stroke="none">
<path d="M3361 3380 c-368 -47 -678 -283 -776 -592 -92 -289 -30 -637 152
-853 106 -126 229 -209 581 -393 329 -173 464 -279 534 -422 101 -206 54 -395
-117 -474 -88 -41 -150 -51 -310 -50 -132 1 -161 4 -240 28 -106 31 -248 97
-346 161 -39 25 -76 44 -81 43 -12 -4 -217 -494 -218 -520 0 -24 42 -54 155
-108 255 -122 534 -169 839 -141 303 28 532 122 712 293 127 121 199 238 240
393 28 105 26 348 -4 469 -27 109 -93 250 -155 332 -110 145 -240 240 -544
398 -392 204 -529 309 -604 462 -29 58 -31 70 -27 137 14 220 174 338 438 324
174 -10 340 -64 490 -161 40 -26 81 -46 92 -44 17 2 35 45 104 242 46 132 84
247 84 257 0 38 -186 134 -338 175 -156 41 -500 64 -661 44z"/>
<path d="M12060 3359 c-129 -5 -289 -13 -355 -17 l-120 -7 0 -1615 0 -1615
585 0 c621 0 665 3 846 50 194 51 356 140 494 271 136 130 209 262 245 443 23
113 16 382 -13 486 -44 160 -111 274 -226 383 -73 69 -198 151 -263 173 -18 6
-33 14 -33 18 0 5 19 21 43 36 208 138 316 333 317 570 0 434 -271 723 -760
810 -120 21 -438 27 -760 14z m647 -522 c162 -47 239 -127 263 -271 11 -72 -3
-173 -35 -241 -42 -89 -131 -154 -261 -190 -64 -18 -393 -33 -458 -21 l-36 7
0 364 0 364 43 4 c97 10 432 -1 484 -16z m52 -1222 c168 -38 268 -101 325
-205 107 -197 74 -516 -69 -655 -127 -123 -396 -176 -752 -148 l-83 6 0 515 0
514 253 -5 c183 -4 272 -10 326 -22z"/>
<path d="M343 3346 c-155 -7 -266 -15 -273 -22 -7 -7 -9 -505 -8 -1615 l3
-1604 295 0 295 0 3 583 2 583 153 -6 c343 -15 654 38 882 150 309 153 480
425 516 822 51 571 -194 916 -746 1048 -291 70 -555 84 -1122 61z m785 -551
c242 -48 387 -146 445 -302 17 -47 21 -80 21 -168 0 -268 -111 -416 -366 -485
-135 -36 -331 -49 -500 -33 l-68 6 0 498 c0 465 1 498 18 503 37 11 369 -2
450 -19z"/>
<path d="M4985 3328 c-3 -7 -4 -735 -3 -1618 l3 -1605 295 0 295 0 0 1615 0
1615 -293 3 c-229 2 -294 0 -297 -10z"/>
<path d="M7245 3330 c-6 -10 1179 -3244 1197 -3267 8 -10 55 -13 175 -13 l164
0 14 34 c93 221 1229 3199 1229 3221 l1 30 -309 3 c-183 1 -313 -2 -320 -7 -6
-5 -182 -485 -391 -1065 l-380 -1056 -19 58 c-11 31 -173 509 -362 1062 l-342
1005 -325 3 c-212 1 -328 -1 -332 -8z"/>
<path d="M10345 3328 c-3 -7 -4 -735 -3 -1618 l3 -1605 295 0 295 0 0 1615 0
1615 -293 3 c-229 2 -294 0 -297 -10z"/>
<path d="M14245 3328 c-3 -7 -4 -735 -3 -1618 l3 -1605 1025 0 1025 0 0 265 0
265 -722 3 -723 2 0 460 0 460 518 2 517 3 0 255 0 255 -517 3 -518 2 0 360 0
360 723 2 722 3 0 265 0 265 -1023 3 c-813 2 -1024 0 -1027 -10z"/>
</g>
</svg>
